<svg width="236" height="96" viewBox="0 0 236 96" fill="none" xmlns="http://www.w3.org/2000/svg">
<path d="M205.735 13.0002H29.6856C29.0439 13.0002 28.4099 13.0002 27.7699 13.0037C27.2341 13.0072 26.7026 13.0174 26.1617 13.026C24.9866 13.0398 23.8143 13.1432 22.6549 13.3352C21.4971 13.5314 20.3757 13.9013 19.3284 14.4324C18.2824 14.968 17.3266 15.664 16.4957 16.4951C15.6605 17.3238 14.9643 18.2817 14.4339 19.332C13.9019 20.3801 13.5331 21.5033 13.3401 22.6628C13.1453 23.8208 13.0404 24.9921 13.0265 26.1663C13.0103 26.7028 13.0086 27.2412 13 27.7778V68.2276C13.0086 68.771 13.0103 69.2974 13.0265 69.8409C13.0404 71.015 13.1453 72.1863 13.3401 73.3442C13.5326 74.5043 13.9014 75.6282 14.4339 76.6767C14.9641 77.7236 15.6604 78.6776 16.4957 79.5018C17.3234 80.3365 18.2798 81.033 19.3284 81.5645C20.3756 82.097 21.497 82.4691 22.6549 82.6684C23.8145 82.8589 24.9867 82.9623 26.1617 82.9778C26.7026 82.9897 27.2341 82.9965 27.7699 82.9965C28.4099 83 29.0439 83 29.6856 83H205.735C206.364 83 207.003 83 207.632 82.9965C208.165 82.9965 208.712 82.9897 209.246 82.9778C210.418 82.9631 211.588 82.8597 212.746 82.6684C213.907 82.4677 215.033 82.0957 216.085 81.5645C217.132 81.0327 218.088 80.3362 218.915 79.5018C219.748 78.6744 220.446 77.7211 220.983 76.6767C221.511 75.6274 221.877 74.5037 222.066 73.3442C222.261 72.1861 222.37 71.0151 222.391 69.8409C222.398 69.2974 222.398 68.771 222.398 68.2276C222.411 67.5918 222.411 66.9596 222.411 66.3135V29.6884C222.411 29.0475 222.411 28.4118 222.398 27.7778C222.398 27.2412 222.398 26.7028 222.391 26.1662C222.37 24.9919 222.261 23.8209 222.066 22.6627C221.876 21.5039 221.511 20.3808 220.983 19.3319C219.903 17.2268 218.19 15.5133 216.085 14.4323C215.033 13.9025 213.907 13.5326 212.746 13.335C211.589 13.1422 210.418 13.0387 209.246 13.0257C208.712 13.0172 208.165 13.0069 207.632 13.0035C207.003 13 206.364 13 205.735 13V13.0002Z" fill="black"/>
<path d="M27.7785 81.469C27.2453 81.469 26.725 81.4622 26.196 81.4503C25.1001 81.436 24.0068 81.3406 22.925 81.1649C21.9163 80.9911 20.9391 80.668 20.0257 80.2061C19.1207 79.7479 18.2952 79.1473 17.581 78.427C16.8564 77.7152 16.2531 76.8897 15.7951 75.9831C15.332 75.0707 15.0115 74.0926 14.8448 73.083C14.6648 71.9983 14.5674 70.9014 14.5535 69.8018C14.5424 69.4327 14.5278 68.2039 14.5278 68.2039V27.778C14.5278 27.778 14.5433 26.5681 14.5535 26.2126C14.5669 25.1148 14.6637 24.0196 14.8432 22.9365C15.0102 21.9242 15.331 20.9433 15.7943 20.0278C16.2506 19.1219 16.8505 18.2957 17.5708 17.5814C18.2902 16.8603 19.1183 16.2565 20.0248 15.7921C20.9361 15.3316 21.9115 15.0108 22.9181 14.8402C24.0035 14.6627 25.1006 14.5667 26.2003 14.5531L27.7793 14.5317H207.624L209.222 14.554C210.311 14.5669 211.398 14.662 212.474 14.8385C213.491 15.0112 214.476 15.3343 215.398 15.7972C217.214 16.7332 218.692 18.214 219.624 20.0321C220.08 20.9412 220.396 21.9141 220.561 22.9177C220.742 24.0097 220.844 25.1135 220.865 26.2203C220.87 26.7159 220.87 27.2482 220.87 27.778C220.884 28.4343 220.884 29.0589 220.884 29.6887V66.3137C220.884 66.9495 220.884 67.5699 220.87 68.1953C220.87 68.7644 220.87 69.2857 220.863 69.8223C220.843 70.9093 220.743 71.9934 220.564 73.0659C220.401 74.0828 220.082 75.0684 219.619 75.9884C219.158 76.8851 218.558 77.7035 217.842 78.4134C217.127 79.1375 216.3 79.7417 215.393 80.2027C214.474 80.6682 213.49 80.9926 212.474 81.1649C211.392 81.3415 210.299 81.437 209.203 81.4503C208.69 81.4622 208.153 81.469 207.632 81.469L205.735 81.4725L27.7785 81.469Z" fill="white"/>
<path d="M56.744 47.8069C56.7636 46.288 57.167 44.7987 57.9168 43.4776C58.6666 42.1565 59.7384 41.0465 61.0325 40.251C60.2104 39.0769 59.1259 38.1107 57.8651 37.4291C56.6043 36.7474 55.2019 36.3692 53.7693 36.3244C50.7134 36.0036 47.7509 38.153 46.1936 38.153C44.6062 38.153 42.2086 36.3562 39.6268 36.4093C37.9568 36.4633 36.3293 36.9489 34.9028 37.8189C33.4762 38.6889 32.2994 39.9135 31.4869 41.3736C27.9675 47.467 30.5927 56.4224 33.9641 61.348C35.6509 63.7599 37.6222 66.454 40.2017 66.3585C42.7259 66.2538 43.6686 64.7489 46.7155 64.7489C49.7342 64.7489 50.6186 66.3585 53.2505 66.2977C55.9591 66.2538 57.6656 63.8751 59.2932 61.4404C60.5052 59.7218 61.4378 57.8225 62.0565 55.8126C60.4829 55.1471 59.14 54.033 58.1953 52.6094C57.2506 51.1857 56.7458 49.5155 56.744 47.8069Z" fill="black"/>
<path d="M51.7731 33.0847C53.2499 31.3118 53.9775 29.0331 53.8013 26.7324C51.5451 26.9694 49.4609 28.0477 47.9641 29.7526C47.2323 30.5855 46.6718 31.5544 46.3147 32.604C45.9576 33.6536 45.8108 34.7633 45.8828 35.8697C47.0113 35.8813 48.1278 35.6367 49.1481 35.1543C50.1684 34.6719 51.0659 33.9643 51.7731 33.0847V33.0847Z" fill="black"/>
<path d="M87.0278 60.4946H78.7444L76.7551 66.3684H73.2466L81.0925 44.637H84.7377L92.5837 66.3684H89.0153L87.0278 60.4946ZM79.6023 57.7842H86.1683L82.9314 48.2515H82.8408L79.6023 57.7842Z" fill="black"/>
<path d="M109.528 58.4472C109.528 63.3708 106.893 66.5341 102.916 66.5341C101.909 66.5868 100.907 66.3548 100.025 65.8645C99.1437 65.3743 98.418 64.6457 97.9312 63.7621H97.8559V71.6098H94.6038V50.5244H97.7517V53.1597H97.8115C98.3207 52.2803 99.0587 51.5555 99.9471 51.0623C100.835 50.5691 101.841 50.3259 102.856 50.3586C106.878 50.3587 109.528 53.5373 109.528 58.4472ZM106.186 58.4472C106.186 55.2395 104.528 53.1306 101.999 53.1306C99.5137 53.1306 97.8423 55.2839 97.8423 58.4472C97.8423 61.6396 99.5137 63.7776 101.999 63.7776C104.528 63.7776 106.185 61.6841 106.185 58.4472H106.186Z" fill="black"/>
<path d="M126.968 58.4472C126.968 63.3708 124.331 66.5341 120.355 66.5341C119.347 66.5868 118.345 66.3548 117.464 65.8645C116.582 65.3743 115.856 64.6457 115.37 63.7621H115.294V71.6098H112.042V50.5244H115.19V53.1597H115.25C115.759 52.2803 116.497 51.5555 117.385 51.0623C118.274 50.5691 119.279 50.3259 120.295 50.3586C124.316 50.3587 126.968 53.5373 126.968 58.4472ZM123.624 58.4472C123.624 55.2395 121.966 53.1306 119.437 53.1306C116.952 53.1306 115.281 55.2839 115.281 58.4472C115.281 61.6396 116.952 63.7776 119.437 63.7776C121.966 63.7776 123.624 61.6841 123.624 58.4472V58.4472Z" fill="black"/>
<path d="M138.491 60.3135C138.732 62.4685 140.826 63.8835 143.687 63.8835C146.428 63.8835 148.4 62.4685 148.4 60.5254C148.4 58.8386 147.21 57.8286 144.394 57.1364L141.578 56.458C137.587 55.4941 135.735 53.6279 135.735 50.5996C135.735 46.8501 139.002 44.2747 143.64 44.2747C148.234 44.2747 151.382 46.8501 151.488 50.5996H148.205C148.009 48.4309 146.216 47.1218 143.596 47.1218C140.976 47.1218 139.183 48.4463 139.183 50.374C139.183 51.9104 140.328 52.8144 143.129 53.5065L145.524 54.0944C149.982 55.1488 151.833 56.9399 151.833 60.1185C151.833 64.1842 148.596 66.7306 143.446 66.7306C138.626 66.7306 135.372 64.244 135.162 60.3134L138.491 60.3135Z" fill="black"/>
<path d="M158.855 46.7749V50.5244H161.868V53.0998H158.855V61.8344C158.855 63.1914 159.459 63.8237 160.783 63.8237C161.141 63.8174 161.498 63.7923 161.853 63.7484V66.3085C161.257 66.4197 160.652 66.4701 160.046 66.4589C156.839 66.4589 155.588 65.254 155.588 62.1813V53.0998H153.284V50.5244H155.588V46.7749H158.855Z" fill="black"/>
<path d="M163.611 58.4472C163.611 53.4621 166.547 50.3296 171.126 50.3296C175.72 50.3296 178.642 53.4621 178.642 58.4472C178.642 63.446 175.735 66.5649 171.126 66.5649C166.518 66.5649 163.611 63.446 163.611 58.4472ZM175.328 58.4472C175.328 55.0276 173.761 53.0093 171.126 53.0093C168.491 53.0093 166.923 55.043 166.923 58.4472C166.923 61.8806 168.491 63.8835 171.126 63.8835C173.761 63.8835 175.328 61.8806 175.328 58.4472H175.328Z" fill="black"/>
<path d="M181.323 50.5248H184.425V53.2215H184.5C184.71 52.3792 185.204 51.6349 185.898 51.1136C186.592 50.5923 187.444 50.3258 188.311 50.359C188.686 50.3576 189.06 50.3984 189.426 50.4803V53.5223C188.952 53.3777 188.459 53.3113 187.964 53.3258C187.492 53.3066 187.021 53.3899 186.584 53.5699C186.146 53.75 185.753 54.0225 185.431 54.3688C185.109 54.7151 184.866 55.127 184.718 55.5762C184.571 56.0254 184.522 56.5012 184.575 56.971V66.3687H181.323L181.323 50.5248Z" fill="black"/>
<path d="M204.42 61.7148C203.983 64.591 201.182 66.5649 197.598 66.5649C192.989 66.5649 190.128 63.4768 190.128 58.5224C190.128 53.5527 193.004 50.3296 197.461 50.3296C201.845 50.3296 204.601 53.3408 204.601 58.1447V59.259H193.411V59.4555C193.359 60.0386 193.432 60.626 193.625 61.1788C193.818 61.7315 194.126 62.2368 194.529 62.6613C194.932 63.0858 195.421 63.4196 195.963 63.6406C196.505 63.8617 197.088 63.9648 197.673 63.9433C198.442 64.0153 199.213 63.8373 199.872 63.4358C200.531 63.0343 201.043 62.4307 201.332 61.7148L204.42 61.7148ZM193.426 56.9861H201.347C201.377 56.4618 201.297 55.9371 201.114 55.445C200.931 54.9529 200.648 54.5039 200.283 54.1263C199.918 53.7488 199.479 53.4507 198.993 53.2508C198.508 53.0509 197.986 52.9536 197.461 52.9648C196.932 52.9617 196.407 53.0634 195.916 53.2642C195.426 53.465 194.981 53.7609 194.606 54.1347C194.231 54.5086 193.933 54.9531 193.731 55.4424C193.528 55.9318 193.425 56.4565 193.426 56.9861V56.9861Z" fill="black"/>
<path d="M79.1955 28.2789C79.8774 28.23 80.5615 28.333 81.1987 28.5805C81.8359 28.828 82.4103 29.2139 82.8803 29.7102C83.3503 30.2066 83.7043 30.801 83.9168 31.4507C84.1292 32.1005 84.1948 32.7892 84.1089 33.4674C84.1089 36.8033 82.3059 38.7209 79.1955 38.7209H75.4238V28.2789H79.1955ZM77.0456 37.2442H79.0144C79.5016 37.2733 79.9892 37.1934 80.4416 37.0103C80.894 36.8273 81.3 36.5456 81.6298 36.1859C81.9597 35.8261 82.2052 35.3974 82.3484 34.9308C82.4917 34.4642 82.5291 33.9715 82.458 33.4887C82.524 33.0077 82.4827 32.5181 82.3373 32.055C82.1918 31.5918 81.9457 31.1665 81.6166 30.8097C81.2875 30.4528 80.8835 30.1731 80.4336 29.9907C79.9838 29.8083 79.4991 29.7277 79.0144 29.7546H77.0456V37.2442Z" fill="black"/>
<path d="M85.941 34.7774C85.8915 34.2595 85.9507 33.737 86.115 33.2434C86.2792 32.7498 86.5448 32.2959 86.8947 31.911C87.2445 31.526 87.671 31.2184 88.1468 31.0079C88.6225 30.7974 89.137 30.6887 89.6572 30.6887C90.1774 30.6887 90.6919 30.7974 91.1677 31.0079C91.6434 31.2184 92.0699 31.526 92.4198 31.911C92.7697 32.2959 93.0353 32.7498 93.1995 33.2434C93.3637 33.737 93.4229 34.2595 93.3734 34.7774C93.4239 35.2958 93.3653 35.819 93.2016 36.3134C93.0378 36.8078 92.7723 37.2625 92.4224 37.6482C92.0724 38.0339 91.6456 38.3422 91.1693 38.5531C90.6931 38.764 90.1781 38.873 89.6572 38.873C89.1364 38.873 88.6213 38.764 88.1451 38.5531C87.6689 38.3422 87.2421 38.0339 86.8921 37.6482C86.5421 37.2625 86.2767 36.8078 86.1129 36.3134C85.9491 35.819 85.8906 35.2958 85.941 34.7774V34.7774ZM91.7738 34.7774C91.7738 33.0693 91.0064 32.0704 89.6598 32.0704C88.308 32.0704 87.5475 33.0693 87.5475 34.7774C87.5475 36.4992 88.308 37.4904 89.6598 37.4904C91.0065 37.4904 91.7738 36.4923 91.7738 34.7774H91.7738Z" fill="black"/>
<path d="M103.253 38.7209H101.64L100.011 32.9172H99.8879L98.2661 38.7209H96.6682L94.4961 30.8408H96.0735L97.4851 36.8538H97.6013L99.2214 30.8408H100.713L102.333 36.8538H102.457L103.861 30.8408H105.416L103.253 38.7209Z" fill="black"/>
<path d="M107.243 30.841H108.74V32.0928H108.857C109.054 31.6432 109.386 31.2663 109.808 31.0147C110.229 30.763 110.719 30.6491 111.208 30.6889C111.592 30.6601 111.977 30.7179 112.335 30.8581C112.693 30.9982 113.015 31.2172 113.277 31.4986C113.539 31.7801 113.734 32.1169 113.848 32.4841C113.962 32.8513 113.992 33.2394 113.936 33.6198V38.721H112.381V34.0103C112.381 32.744 111.83 32.1142 110.68 32.1142C110.42 32.1021 110.16 32.1464 109.918 32.2441C109.677 32.3418 109.459 32.4906 109.28 32.6803C109.102 32.8699 108.966 33.096 108.883 33.343C108.8 33.59 108.771 33.852 108.799 34.1111V38.7211H107.243L107.243 30.841Z" fill="black"/>
<path d="M116.414 27.7646H117.969V38.7209H116.414V27.7646Z" fill="black"/>
<path d="M120.131 34.7775C120.081 34.2596 120.141 33.7371 120.305 33.2435C120.469 32.7498 120.735 32.296 121.085 31.911C121.435 31.526 121.861 31.2184 122.337 31.0079C122.813 30.7974 123.327 30.6887 123.847 30.6887C124.368 30.6887 124.882 30.7974 125.358 31.0079C125.834 31.2184 126.26 31.526 126.61 31.911C126.96 32.296 127.226 32.7498 127.39 33.2435C127.554 33.7371 127.614 34.2596 127.564 34.7775C127.614 35.2959 127.556 35.8191 127.392 36.3136C127.228 36.808 126.963 37.2626 126.613 37.6484C126.263 38.0341 125.836 38.3423 125.36 38.5532C124.883 38.7641 124.368 38.8731 123.847 38.8731C123.327 38.8731 122.811 38.7641 122.335 38.5532C121.859 38.3423 121.432 38.0341 121.082 37.6484C120.732 37.2626 120.467 36.808 120.303 36.3136C120.139 35.8191 120.08 35.2959 120.131 34.7775V34.7775ZM125.964 34.7775C125.964 33.0694 125.196 32.0705 123.85 32.0705C122.498 32.0705 121.737 33.0694 121.737 34.7775C121.737 36.4993 122.498 37.4905 123.85 37.4905C125.196 37.4905 125.964 36.4925 125.964 34.7775H125.964Z" fill="black"/>
<path d="M129.201 36.4924C129.201 35.0739 130.257 34.2562 132.132 34.14L134.267 34.0169V33.3368C134.267 32.5045 133.716 32.0345 132.653 32.0345C131.785 32.0345 131.184 32.3533 131.011 32.9104H129.505C129.664 31.5569 130.938 30.6887 132.725 30.6887C134.701 30.6887 135.815 31.6722 135.815 33.3368V38.7209H134.318V37.6135H134.195C133.945 38.0107 133.594 38.3346 133.179 38.5519C132.763 38.7693 132.297 38.8724 131.828 38.8507C131.497 38.8852 131.163 38.8499 130.846 38.7471C130.53 38.6444 130.239 38.4765 129.991 38.2544C129.744 38.0322 129.546 37.7606 129.41 37.4571C129.273 37.1536 129.202 36.825 129.201 36.4924V36.4924ZM134.267 35.8191V35.1603L132.342 35.2833C131.257 35.3559 130.765 35.7251 130.765 36.4198C130.765 37.129 131.38 37.5417 132.226 37.5417C132.474 37.5668 132.724 37.5418 132.962 37.4681C133.2 37.3944 133.421 37.2737 133.612 37.1129C133.802 36.9522 133.958 36.7548 134.071 36.5326C134.183 36.3103 134.25 36.0676 134.267 35.8191V35.8191Z" fill="black"/>
<path d="M137.859 34.7775C137.859 32.2875 139.139 30.7101 141.13 30.7101C141.622 30.6874 142.111 30.8054 142.539 31.0502C142.967 31.295 143.316 31.6566 143.546 32.0926H143.663V27.7646H145.218V38.7209H143.728V37.4759H143.604C143.357 37.909 142.995 38.2661 142.559 38.5084C142.123 38.7508 141.629 38.8692 141.13 38.8508C139.125 38.8509 137.859 37.2734 137.859 34.7775ZM139.465 34.7775C139.465 36.4489 140.253 37.4546 141.571 37.4546C142.882 37.4546 143.692 36.4343 143.692 34.7843C143.692 33.142 142.873 32.1072 141.571 32.1072C140.262 32.1072 139.465 33.1198 139.465 34.7775H139.465Z" fill="black"/>
<path d="M151.652 34.7774C151.603 34.2595 151.662 33.737 151.826 33.2434C151.99 32.7498 152.256 32.2959 152.606 31.911C152.956 31.526 153.382 31.2184 153.858 31.0079C154.334 30.7974 154.848 30.6887 155.368 30.6887C155.888 30.6887 156.403 30.7974 156.879 31.0079C157.354 31.2184 157.781 31.526 158.131 31.911C158.481 32.2959 158.746 32.7498 158.911 33.2434C159.075 33.737 159.134 34.2595 159.084 34.7774C159.135 35.2958 159.076 35.819 158.913 36.3134C158.749 36.8078 158.483 37.2625 158.133 37.6482C157.783 38.0339 157.357 38.3422 156.88 38.5531C156.404 38.764 155.889 38.873 155.368 38.873C154.847 38.873 154.332 38.764 153.856 38.5531C153.38 38.3422 152.953 38.0339 152.603 37.6482C152.253 37.2625 151.988 36.8078 151.824 36.3134C151.66 35.819 151.602 35.2958 151.652 34.7774V34.7774ZM157.485 34.7774C157.485 33.0693 156.717 32.0704 155.371 32.0704C154.019 32.0704 153.259 33.0693 153.259 34.7774C153.259 36.4992 154.019 37.4904 155.371 37.4904C156.718 37.4904 157.485 36.4923 157.485 34.7774Z" fill="black"/>
<path d="M161.171 30.841H162.668V32.0928H162.784C162.981 31.6432 163.314 31.2663 163.735 31.0147C164.157 30.763 164.647 30.6491 165.136 30.6889C165.519 30.6601 165.904 30.7179 166.262 30.8581C166.62 30.9982 166.942 31.2172 167.204 31.4986C167.466 31.7801 167.661 32.1169 167.776 32.4841C167.89 32.8513 167.92 33.2394 167.863 33.6198V38.721H166.308V34.0103C166.308 32.744 165.758 32.1142 164.608 32.1142C164.347 32.1021 164.088 32.1464 163.846 32.2441C163.604 32.3418 163.387 32.4906 163.208 32.6803C163.029 32.8699 162.894 33.096 162.811 33.343C162.727 33.59 162.699 33.852 162.726 34.1111V38.7211H161.171V30.841Z" fill="black"/>
<path d="M176.651 28.8789V30.8767H178.358V32.1866H176.651V36.2386C176.651 37.0641 176.991 37.4255 177.765 37.4255C177.963 37.4249 178.161 37.4129 178.358 37.3896V38.685C178.079 38.735 177.796 38.7616 177.512 38.7645C175.783 38.7645 175.094 38.1561 175.094 36.6368V32.1866H173.843V30.8766H175.094V28.8789H176.651Z" fill="black"/>
<path d="M180.483 27.7646H182.024V32.1072H182.147C182.354 31.6534 182.695 31.2743 183.125 31.0217C183.555 30.7691 184.053 30.6552 184.55 30.6956C184.931 30.6748 185.313 30.7385 185.667 30.8821C186.021 31.0256 186.338 31.2456 186.598 31.5261C186.857 31.8067 187.051 32.1411 187.166 32.5053C187.281 32.8695 187.315 33.2547 187.264 33.6333V38.7209H185.707V34.0169C185.707 32.7583 185.121 32.1208 184.022 32.1208C183.755 32.0989 183.486 32.1356 183.234 32.2285C182.983 32.3213 182.754 32.468 182.565 32.6583C182.376 32.8486 182.231 33.0779 182.14 33.3301C182.049 33.5824 182.014 33.8515 182.038 34.1186V38.7209H180.483L180.483 27.7646Z" fill="black"/>
<path d="M196.332 36.5934C196.12 37.3136 195.663 37.9365 195.038 38.3533C194.414 38.7701 193.663 38.9541 192.917 38.8731C192.398 38.8868 191.882 38.7874 191.405 38.5817C190.928 38.3761 190.502 38.0691 190.156 37.6821C189.809 37.2951 189.551 36.8374 189.4 36.3407C189.248 35.844 189.206 35.3202 189.277 34.8058C189.208 34.2897 189.25 33.7649 189.402 33.2667C189.553 32.7685 189.81 32.3087 190.154 31.9183C190.499 31.5279 190.923 31.2161 191.399 31.004C191.874 30.7919 192.39 30.6844 192.91 30.6889C195.103 30.6889 196.426 32.1868 196.426 34.6613V35.204H190.861V35.2911C190.837 35.5803 190.873 35.8714 190.968 36.1457C191.063 36.42 191.214 36.6715 191.411 36.8841C191.609 37.0966 191.849 37.2655 192.115 37.38C192.382 37.4944 192.67 37.5519 192.96 37.5486C193.332 37.5933 193.709 37.5263 194.043 37.3562C194.376 37.1861 194.652 36.9205 194.835 36.5933L196.332 36.5934ZM190.861 34.0538H194.841C194.861 33.7894 194.825 33.5237 194.736 33.274C194.647 33.0242 194.506 32.7959 194.324 32.6036C194.141 32.4114 193.92 32.2594 193.675 32.1576C193.43 32.0558 193.167 32.0064 192.902 32.0125C192.633 32.0091 192.366 32.0596 192.117 32.161C191.868 32.2624 191.641 32.4126 191.451 32.6029C191.261 32.7931 191.111 33.0195 191.009 33.2687C190.908 33.5179 190.858 33.7849 190.861 34.0538H190.861Z" fill="black"/>
</svg>
